<?xml version="1.0" standalone="no"?><svg xmlns="http://www.w3.org/2000/svg" viewBox="0 0 1440 320"><path fill="#ff5500" fill-opacity="1" d="M0,224L30,192C60,160,120,96,180,96C240,96,300,160,360,160C420,160,480,96,540,69.3C600,43,660,53,720,64C780,75,840,85,900,117.3C960,149,1020,203,1080,224C1140,245,1200,235,1260,218.7C1320,203,1380,181,1410,170.7L1440,160L1440,320L1410,320C1380,320,1320,320,1260,320C1200,320,1140,320,1080,320C1020,320,960,320,900,320C840,320,780,320,720,320C660,320,600,320,540,320C480,320,420,320,360,320C300,320,240,320,180,320C120,320,60,320,30,320L0,320Z"></path></svg>